REM DIRINDEX 1\2,1\3,1\4,1\5
REM DIRNAME folder01,folder02,folder03,folder04,folder05
TITLE ""
FILE "140.mp3" MP3
  TRACK 01 AUDIO
    TITLE "0:"
    INDEX 01 00:00:00
  TRACK 02 AUDIO
    TITLE "2:cjc046_3729"
    INDEX 01 00:00:13
  TRACK 03 AUDIO
    TITLE "0:"
    INDEX 01 00:01:17
  TRACK 04 AUDIO
    TITLE "3:cjc046_3730"
    INDEX 01 00:01:36
  TRACK 05 AUDIO
    TITLE "0:"
    INDEX 01 00:02:43
  TRACK 06 AUDIO
    TITLE "4:cjc046_3731"
    INDEX 01 00:02:63
  TRACK 07 AUDIO
    TITLE "0:"
    INDEX 01 00:03:68
  TRACK 08 AUDIO
    TITLE "2:cjc046_3732"
    INDEX 01 00:05:01
  TRACK 09 AUDIO
    TITLE "0:"
    INDEX 01 00:06:12
  TRACK 10 AUDIO
    TITLE "3:cjc046_3733"
    INDEX 01 00:06:30
  TRACK 11 AUDIO
    TITLE "0:"
    INDEX 01 00:07:45
  TRACK 12 AUDIO
    TITLE "4:cjc046_3734"
    INDEX 01 00:07:62
  TRACK 13 AUDIO
    TITLE "0:"
    INDEX 01 00:08:73
  TRACK 14 AUDIO
    TITLE "2:cjc046_3735"
    INDEX 01 00:10:04
  TRACK 15 AUDIO
    TITLE "0:"
    INDEX 01 00:11:11
  TRACK 16 AUDIO
    TITLE "3:cjc046_3736"
    INDEX 01 00:11:29
  TRACK 17 AUDIO
    TITLE "0:"
    INDEX 01 00:12:24
  TRACK 18 AUDIO
    TITLE "4:cjc046_3737"
    INDEX 01 00:12:46
  TRACK 19 AUDIO
    TITLE "0:"
    INDEX 01 00:13:53
  TRACK 20 AUDIO
    TITLE "2:cjc046_3738"
    INDEX 01 00:14:56
  TRACK 21 AUDIO
    TITLE "0:"
    INDEX 01 00:15:66
  TRACK 22 AUDIO
    TITLE "3:cjc046_3739"
    INDEX 01 00:16:14
  TRACK 23 AUDIO
    TITLE "0:"
    INDEX 01 00:17:31
  TRACK 24 AUDIO
    TITLE "4:cjc046_3740"
    INDEX 01 00:17:45
  TRACK 25 AUDIO
    TITLE "0:"
    INDEX 01 00:18:54
  TRACK 26 AUDIO
    TITLE "2:cjc046_3741"
    INDEX 01 00:19:65
  TRACK 27 AUDIO
    TITLE "0:"
    INDEX 01 00:21:00
  TRACK 28 AUDIO
    TITLE "3:cjc046_3742"
    INDEX 01 00:21:15
  TRACK 29 AUDIO
    TITLE "0:"
    INDEX 01 00:22:74
  TRACK 30 AUDIO
    TITLE "4:cjc046_3743"
    INDEX 01 00:23:18
  TRACK 31 AUDIO
    TITLE "0:"
    INDEX 01 00:24:27
  TRACK 32 AUDIO
    TITLE "2:cjc046_3744"
    INDEX 01 00:25:31
  TRACK 33 AUDIO
    TITLE "0:"
    INDEX 01 00:26:32
  TRACK 34 AUDIO
    TITLE "3:cjc046_3745"
    INDEX 01 00:26:54
  TRACK 35 AUDIO
    TITLE "0:"
    INDEX 01 00:27:63
  TRACK 36 AUDIO
    TITLE "4:cjc046_3746"
    INDEX 01 00:27:67
  TRACK 37 AUDIO
    TITLE "0:"
    INDEX 01 00:28:72
  TRACK 38 AUDIO
    TITLE "2:cjc046_3747"
    INDEX 01 00:30:03
  TRACK 39 AUDIO
    TITLE "0:"
    INDEX 01 00:31:12
  TRACK 40 AUDIO
    TITLE "3:cjc046_3748"
    INDEX 01 00:31:29
  TRACK 41 AUDIO
    TITLE "0:"
    INDEX 01 00:32:45
  TRACK 42 AUDIO
    TITLE "4:cjc046_3749"
    INDEX 01 00:32:50
  TRACK 43 AUDIO
    TITLE "0:"
    INDEX 01 00:33:60
  TRACK 44 AUDIO
    TITLE "2:cjc046_3750"
    INDEX 01 00:34:69
  TRACK 45 AUDIO
    TITLE "0:"
    INDEX 01 00:36:11
  TRACK 46 AUDIO
    TITLE "3:cjc046_3751"
    INDEX 01 00:36:29
  TRACK 47 AUDIO
    TITLE "0:"
    INDEX 01 00:37:44
  TRACK 48 AUDIO
    TITLE "4:cjc046_3752"
    INDEX 01 00:37:65
  TRACK 49 AUDIO
    TITLE "0:"
    INDEX 01 00:39:07
  TRACK 50 AUDIO
    TITLE "2:cjc046_3753"
    INDEX 01 00:40:15
  TRACK 51 AUDIO
    TITLE "0:"
    INDEX 01 00:41:12
  TRACK 52 AUDIO
    TITLE "3:cjc046_3754"
    INDEX 01 00:41:30
  TRACK 53 AUDIO
    TITLE "0:"
    INDEX 01 00:42:12
  TRACK 54 AUDIO
    TITLE "4:cjc046_3755"
    INDEX 01 00:42:31
  TRACK 55 AUDIO
    TITLE "0:"
    INDEX 01 00:43:33
  TRACK 56 AUDIO
    TITLE "2:cjc046_3756"
    INDEX 01 00:44:40
  TRACK 57 AUDIO
    TITLE "0:"
    INDEX 01 00:45:45
  TRACK 58 AUDIO
    TITLE "3:cjc046_3757"
    INDEX 01 00:45:61
  TRACK 59 AUDIO
    TITLE "0:"
    INDEX 01 00:46:54
  TRACK 60 AUDIO
    TITLE "4:cjc046_3758"
    INDEX 01 00:46:72
  TRACK 61 AUDIO
    TITLE "0:"
    INDEX 01 00:48:04
  TRACK 62 AUDIO
    TITLE "2:cjc046_3759"
    INDEX 01 00:49:08
  TRACK 63 AUDIO
    TITLE "0:"
    INDEX 01 00:50:21
  TRACK 64 AUDIO
    TITLE "3:cjc046_3760"
    INDEX 01 00:50:41
  TRACK 65 AUDIO
    TITLE "0:"
    INDEX 01 00:51:48
  TRACK 66 AUDIO
    TITLE "4:cjc046_3761"
    INDEX 01 00:51:52
  TRACK 67 AUDIO
    TITLE "0:"
    INDEX 01 00:52:69
  TRACK 68 AUDIO
    TITLE "2:cjc046_3762"
    INDEX 01 00:54:01
  TRACK 69 AUDIO
    TITLE "0:"
    INDEX 01 00:55:12
  TRACK 70 AUDIO
    TITLE "3:cjc046_3763"
    INDEX 01 00:55:34
  TRACK 71 AUDIO
    TITLE "0:"
    INDEX 01 00:56:35
  TRACK 72 AUDIO
    TITLE "4:cjc046_3764"
    INDEX 01 00:56:57
  TRACK 73 AUDIO
    TITLE "0:"
    INDEX 01 00:57:66
  TRACK 74 AUDIO
    TITLE "2:cjc046_3765"
    INDEX 01 00:59:02
  TRACK 75 AUDIO
    TITLE "0:"
    INDEX 01 01:00:19
  TRACK 76 AUDIO
    TITLE "3:cjc046_3766"
    INDEX 01 01:00:33
  TRACK 77 AUDIO
    TITLE "0:"
    INDEX 01 01:01:72
  TRACK 78 AUDIO
    TITLE "4:cjc046_3767"
    INDEX 01 01:02:18
  TRACK 79 AUDIO
    TITLE "0:"
    INDEX 01 01:03:33
  TRACK 80 AUDIO
    TITLE "2:cjc046_3768"
    INDEX 01 01:04:41
  TRACK 81 AUDIO
    TITLE "0:"
    INDEX 01 01:05:48
  TRACK 82 AUDIO
    TITLE "3:cjc046_3769"
    INDEX 01 01:05:71
  TRACK 83 AUDIO
    TITLE "0:"
    INDEX 01 01:07:27
  TRACK 84 AUDIO
    TITLE "4:cjc046_3770"
    INDEX 01 01:07:49
  TRACK 85 AUDIO
    TITLE "0:"
    INDEX 01 01:08:56
  TRACK 86 AUDIO
    TITLE "2:cjc046_3771"
    INDEX 01 01:09:65
  TRACK 87 AUDIO
    TITLE "0:"
    INDEX 01 01:10:65
  TRACK 88 AUDIO
    TITLE "3:cjc046_3772"
    INDEX 01 01:11:09
  TRACK 89 AUDIO
    TITLE "0:"
    INDEX 01 01:13:06
  TRACK 90 AUDIO
    TITLE "4:cjc046_3773"
    INDEX 01 01:13:24
  TRACK 91 AUDIO
    TITLE "0:"
    INDEX 01 01:14:23
  TRACK 92 AUDIO
    TITLE "2:cjc046_3774"
    INDEX 01 01:15:29
  TRACK 93 AUDIO
    TITLE "0:"
    INDEX 01 01:16:42
  TRACK 94 AUDIO
    TITLE "3:cjc046_3775"
    INDEX 01 01:16:65
  TRACK 95 AUDIO
    TITLE "0:"
    INDEX 01 01:18:06
  TRACK 96 AUDIO
    TITLE "4:cjc046_3776"
    INDEX 01 01:18:17
  TRACK 97 AUDIO
    TITLE "0:"
    INDEX 01 01:19:32
